<svg width="27" height="21" viewBox="0 0 27 21" fill="none" xmlns="http://www.w3.org/2000/svg">
<rect width="26.9091" height="20.1818" transform="translate(0.0909424 0.409088)" fill="#2B9F5A"/>
<path fill-rule="evenodd" clip-rule="evenodd" d="M13.5455 2.93182L2.61365 10.5L13.5455 18.0682L24.4773 10.5L13.5455 2.93182Z" fill="#FFD018"/>
<path d="M18.5909 10.5C18.5909 13.2865 16.332 15.5455 13.5455 15.5455C10.7589 15.5455 8.5 13.2865 8.5 10.5C8.5 7.71347 10.7589 5.45454 13.5455 5.45454C16.332 5.45454 18.5909 7.71347 18.5909 10.5Z" fill="#41479B"/>
<mask id="mask0_174_179" style="mask-type:alpha" maskUnits="userSpaceOnUse" x="8" y="5" width="11" height="11">
<path d="M18.5909 10.5C18.5909 13.2865 16.332 15.5455 13.5455 15.5455C10.7589 15.5455 8.5 13.2865 8.5 10.5C8.5 7.71347 10.7589 5.45454 13.5455 5.45454C16.332 5.45454 18.5909 7.71347 18.5909 10.5Z" fill="#41479B"/>
</mask>
<g mask="url(#mask0_174_179)">
<path fill-rule="evenodd" clip-rule="evenodd" d="M7.72807 9.44509L7.65904 8.8182C7.58986 8.19132 7.58997 8.19131 7.5901 8.19129L7.59422 8.19085L7.60405 8.1898L7.63971 8.18616C7.67044 8.1831 7.71493 8.17883 7.77204 8.1738C7.88624 8.16374 8.05106 8.1506 8.25739 8.13784C8.66971 8.11236 9.24967 8.08832 9.92411 8.0938C11.263 8.10467 13.0164 8.23187 14.5746 8.71929C16.122 9.20332 17.4388 9.95159 18.3644 10.5732C18.8286 10.885 19.1983 11.1676 19.4535 11.3736C19.5812 11.4767 19.6805 11.5609 19.7489 11.6202C19.7832 11.6499 19.8097 11.6734 19.8282 11.69L19.85 11.7096L19.8563 11.7154L19.8583 11.7172C19.8584 11.7173 19.8595 11.7183 19.4318 12.1818C19.0041 12.6453 19.0042 12.6454 19.0042 12.6455L19.0013 12.6428L18.9867 12.6296C18.973 12.6173 18.9515 12.5983 18.9225 12.5731C18.8644 12.5228 18.7765 12.4482 18.6611 12.355C18.4302 12.1686 18.0903 11.9086 17.6611 11.6203C16.7997 11.0418 15.5938 10.3598 14.198 9.92313C12.813 9.48989 11.2028 9.36559 9.91386 9.35512C9.27438 9.34993 8.72437 9.37275 8.3352 9.39681C8.14079 9.40882 7.98697 9.42112 7.88273 9.4303C7.83063 9.43489 7.79095 9.4387 7.76481 9.4413L7.73593 9.44425L7.72807 9.44509Z" fill="#F5F8FB"/>
</g>
<path d="M11.8636 12.6023C11.8636 12.8345 11.6754 13.0227 11.4432 13.0227C11.2109 13.0227 11.0227 12.8345 11.0227 12.6023C11.0227 12.3701 11.2109 12.1818 11.4432 12.1818C11.6754 12.1818 11.8636 12.3701 11.8636 12.6023Z" fill="#F5F8FB"/>
<path d="M14.3864 13.4432C14.3864 13.6754 14.1982 13.8636 13.966 13.8636C13.7338 13.8636 13.5455 13.6754 13.5455 13.4432C13.5455 13.211 13.7338 13.0227 13.966 13.0227C14.1982 13.0227 14.3864 13.211 14.3864 13.4432Z" fill="#F5F8FB"/>
<path d="M16.0682 12.6023C16.0682 12.8345 15.88 13.0227 15.6477 13.0227C15.4155 13.0227 15.2273 12.8345 15.2273 12.6023C15.2273 12.3701 15.4155 12.1818 15.6477 12.1818C15.88 12.1818 16.0682 12.3701 16.0682 12.6023Z" fill="#F5F8FB"/>
</svg>
