<svg width="28" height="21" viewBox="0 0 28 21" fill="none" xmlns="http://www.w3.org/2000/svg">
<rect x="0.181763" y="0.409088" width="26.9091" height="18.5" fill="#EEF3F8"/>
<rect x="0.181763" y="0.409088" width="15.1364" height="11.7727" fill="#41479B"/>
<rect x="15.3181" y="0.409088" width="11.7727" height="1.68182" fill="#DC251C"/>
<rect x="15.3181" y="3.77272" width="11.7727" height="1.68182" fill="#DC251C"/>
<rect x="15.3181" y="7.13637" width="11.7727" height="1.68182" fill="#DC251C"/>
<rect x="15.3181" y="10.5" width="11.7727" height="1.68182" fill="#DC251C"/>
<rect x="0.181763" y="13.8636" width="26.9091" height="1.68182" fill="#DC251C"/>
<rect x="0.181763" y="17.2273" width="26.9091" height="1.68182" fill="#DC251C"/>
<rect x="1.86353" y="2.09091" width="1.68182" height="1.68182" fill="#C5D0EC"/>
<rect x="5.22717" y="2.09091" width="1.68182" height="1.68182" fill="#C5D0EC"/>
<rect x="8.59082" y="2.09091" width="1.68182" height="1.68182" fill="#C5D0EC"/>
<rect x="11.9545" y="2.09091" width="1.68182" height="1.68182" fill="#C5D0EC"/>
<rect x="1.86353" y="5.45454" width="1.68182" height="1.68182" fill="#C5D0EC"/>
<rect x="5.22717" y="5.45454" width="1.68182" height="1.68182" fill="#C5D0EC"/>
<rect x="8.59082" y="5.45454" width="1.68182" height="1.68182" fill="#C5D0EC"/>
<rect x="3.54529" y="7.13637" width="1.68182" height="1.68182" fill="#C5D0EC"/>
<rect x="6.90894" y="7.13637" width="1.68182" height="1.68182" fill="#C5D0EC"/>
<rect x="10.2726" y="7.13637" width="1.68182" height="1.68182" fill="#C5D0EC"/>
<rect x="3.54529" y="3.77272" width="1.68182" height="1.68182" fill="#C5D0EC"/>
<rect x="6.90894" y="3.77272" width="1.68182" height="1.68182" fill="#C5D0EC"/>
<rect x="10.2726" y="3.77272" width="1.68182" height="1.68182" fill="#C5D0EC"/>
<rect x="11.9545" y="5.45454" width="1.68182" height="1.68182" fill="#C5D0EC"/>
<rect x="1.86353" y="8.81818" width="1.68182" height="1.68182" fill="#C5D0EC"/>
<rect x="5.22717" y="8.81818" width="1.68182" height="1.68182" fill="#C5D0EC"/>
<rect x="8.59082" y="8.81818" width="1.68182" height="1.68182" fill="#C5D0EC"/>
<rect x="11.9545" y="8.81818" width="1.68182" height="1.68182" fill="#C5D0EC"/>
</svg>
